<mxfile host="app.diagrams.net" modified="2023-05-23T03:20:14.686Z" agent="Mozilla/5.0 (Windows NT 10.0; Win64; x64) AppleWebKit/537.36 (KHTML, like Gecko) Chrome/113.0.0.0 Safari/537.36 Edg/113.0.1774.50" version="21.3.2" etag="BIAUQO58ah3dmNshJdr_" type="device">
  <diagram id="J5jh0EvAeAwq5rUOcNNh" name="第 1 页">
    <mxGraphModel dx="688" dy="451" grid="0" gridSize="10" guides="1" tooltips="1" connect="1" arrows="1" fold="1" page="1" pageScale="1" pageWidth="827" pageHeight="1169" background="none" math="0" shadow="1">
      <root>
        <mxCell id="0" />
        <mxCell id="1" parent="0" />
        <mxCell id="-xOVJIPQ-5dqLX6Yr240-22" value="" style="rounded=1;whiteSpace=wrap;html=1;dashed=1;fillColor=#f5f5f5;fontColor=#333333;strokeColor=#666666;" vertex="1" parent="1">
          <mxGeometry x="145" y="220" width="165" height="90" as="geometry" />
        </mxCell>
        <mxCell id="-xOVJIPQ-5dqLX6Yr240-21" value="" style="rounded=1;whiteSpace=wrap;html=1;dashed=1;fillColor=#d5e8d4;strokeColor=#82b366;" vertex="1" parent="1">
          <mxGeometry x="312.5" y="330" width="125" height="100" as="geometry" />
        </mxCell>
        <mxCell id="-xOVJIPQ-5dqLX6Yr240-1" value="词嵌入" style="rounded=1;whiteSpace=wrap;html=1;" vertex="1" parent="1">
          <mxGeometry x="160" y="240" width="60" height="40" as="geometry" />
        </mxCell>
        <mxCell id="-xOVJIPQ-5dqLX6Yr240-2" value="Sentence" style="text;html=1;strokeColor=none;fillColor=none;align=center;verticalAlign=middle;whiteSpace=wrap;rounded=0;" vertex="1" parent="1">
          <mxGeometry x="70" y="245" width="60" height="30" as="geometry" />
        </mxCell>
        <mxCell id="-xOVJIPQ-5dqLX6Yr240-3" value="" style="endArrow=classic;html=1;rounded=0;endSize=3;" edge="1" parent="1">
          <mxGeometry width="50" height="50" relative="1" as="geometry">
            <mxPoint x="130" y="259.58" as="sourcePoint" />
            <mxPoint x="160" y="259.58" as="targetPoint" />
          </mxGeometry>
        </mxCell>
        <mxCell id="-xOVJIPQ-5dqLX6Yr240-4" value="初始&lt;br&gt;特征" style="rounded=1;whiteSpace=wrap;html=1;" vertex="1" parent="1">
          <mxGeometry x="250" y="240" width="50" height="40" as="geometry" />
        </mxCell>
        <mxCell id="-xOVJIPQ-5dqLX6Yr240-5" value="" style="endArrow=classic;html=1;rounded=0;endSize=3;entryX=0;entryY=0.5;entryDx=0;entryDy=0;" edge="1" parent="1" target="-xOVJIPQ-5dqLX6Yr240-4">
          <mxGeometry width="50" height="50" relative="1" as="geometry">
            <mxPoint x="220" y="259.78999999999996" as="sourcePoint" />
            <mxPoint x="250" y="260.21" as="targetPoint" />
          </mxGeometry>
        </mxCell>
        <mxCell id="-xOVJIPQ-5dqLX6Yr240-6" value="" style="endArrow=classic;html=1;rounded=0;endSize=3;exitX=1;exitY=0.5;exitDx=0;exitDy=0;" edge="1" parent="1" source="-xOVJIPQ-5dqLX6Yr240-4">
          <mxGeometry width="50" height="50" relative="1" as="geometry">
            <mxPoint x="350" y="259.58" as="sourcePoint" />
            <mxPoint x="340" y="260" as="targetPoint" />
          </mxGeometry>
        </mxCell>
        <mxCell id="-xOVJIPQ-5dqLX6Yr240-11" value="" style="edgeStyle=orthogonalEdgeStyle;rounded=0;orthogonalLoop=1;jettySize=auto;html=1;endSize=3;" edge="1" parent="1" source="-xOVJIPQ-5dqLX6Yr240-8" target="-xOVJIPQ-5dqLX6Yr240-10">
          <mxGeometry relative="1" as="geometry" />
        </mxCell>
        <mxCell id="-xOVJIPQ-5dqLX6Yr240-15" value="" style="edgeStyle=orthogonalEdgeStyle;rounded=0;orthogonalLoop=1;jettySize=auto;html=1;endSize=3;" edge="1" parent="1" source="-xOVJIPQ-5dqLX6Yr240-8">
          <mxGeometry relative="1" as="geometry">
            <mxPoint x="375" y="330" as="targetPoint" />
          </mxGeometry>
        </mxCell>
        <mxCell id="-xOVJIPQ-5dqLX6Yr240-8" value="表特征&lt;br&gt;填充模块" style="rounded=1;whiteSpace=wrap;html=1;fillColor=#ffe6cc;strokeColor=#d79b00;" vertex="1" parent="1">
          <mxGeometry x="340" y="230" width="70" height="60" as="geometry" />
        </mxCell>
        <mxCell id="-xOVJIPQ-5dqLX6Yr240-10" value="特征推理&lt;br&gt;模块" style="whiteSpace=wrap;html=1;rounded=1;fillColor=#fff2cc;strokeColor=#d6b656;" vertex="1" parent="1">
          <mxGeometry x="440" y="230" width="60" height="60" as="geometry" />
        </mxCell>
        <mxCell id="-xOVJIPQ-5dqLX6Yr240-12" value="" style="edgeStyle=orthogonalEdgeStyle;rounded=0;orthogonalLoop=1;jettySize=auto;html=1;endSize=3;exitX=0.5;exitY=0;exitDx=0;exitDy=0;entryX=0.5;entryY=0;entryDx=0;entryDy=0;" edge="1" parent="1" source="-xOVJIPQ-5dqLX6Yr240-10" target="-xOVJIPQ-5dqLX6Yr240-8">
          <mxGeometry relative="1" as="geometry">
            <mxPoint x="490" y="190" as="sourcePoint" />
            <mxPoint x="380" y="130" as="targetPoint" />
            <Array as="points">
              <mxPoint x="470" y="200" />
              <mxPoint x="375" y="200" />
            </Array>
          </mxGeometry>
        </mxCell>
        <mxCell id="-xOVJIPQ-5dqLX6Yr240-13" value="编码器模块" style="text;html=1;strokeColor=none;fillColor=none;align=center;verticalAlign=middle;whiteSpace=wrap;rounded=0;" vertex="1" parent="1">
          <mxGeometry x="190" y="280" width="80" height="30" as="geometry" />
        </mxCell>
        <mxCell id="-xOVJIPQ-5dqLX6Yr240-14" value="解码器" style="whiteSpace=wrap;html=1;rounded=1;" vertex="1" parent="1">
          <mxGeometry x="347.5" y="340" width="55" height="30" as="geometry" />
        </mxCell>
        <mxCell id="-xOVJIPQ-5dqLX6Yr240-18" value="" style="endArrow=classic;html=1;rounded=0;endSize=3;exitX=0.5;exitY=1;exitDx=0;exitDy=0;" edge="1" parent="1" source="-xOVJIPQ-5dqLX6Yr240-14">
          <mxGeometry width="50" height="50" relative="1" as="geometry">
            <mxPoint x="370" y="390" as="sourcePoint" />
            <mxPoint x="375" y="390" as="targetPoint" />
          </mxGeometry>
        </mxCell>
        <mxCell id="-xOVJIPQ-5dqLX6Yr240-19" value="所有&lt;br&gt;三元组" style="whiteSpace=wrap;html=1;rounded=1;" vertex="1" parent="1">
          <mxGeometry x="347.5" y="390" width="55" height="30" as="geometry" />
        </mxCell>
      </root>
    </mxGraphModel>
  </diagram>
</mxfile>
